<mxfile host="app.diagrams.net" modified="2023-09-20T04:43:58.920Z" agent="Mozilla/5.0 (Linux; Android 10; K) AppleWebKit/537.36 (KHTML, like Gecko) Chrome/117.0.0.0 Safari/537.36" version="21.7.5" etag="8w5WH_1Xzlsm_BKO8XC9" type="github">
  <diagram name="Page-1" id="l9S21W0NlxuxwYYocxyH">
    <mxGraphModel>
      <root>
        <mxCell id="0" />
        <mxCell id="1" parent="0" />
      </root>
    </mxGraphModel>
  </diagram>
</mxfile>
